<svg id="svg" version="1.1" xmlns="http://www.w3.org/2000/svg" xmlns:xlink="http://www.w3.org/1999/xlink" width="400" height="400" viewBox="0, 0, 400,400"><g id="svgg"><path id="path0" d="M269.922 136.943 C 269.385 137.032,267.715 137.304,266.211 137.547 C 248.994 140.335,240.466 145.803,217.179 168.991 L 201.350 184.753 187.296 170.666 C 172.642 155.978,168.021 151.775,162.554 148.166 C 140.353 133.509,109.754 133.065,87.136 147.072 C 40.829 175.750,41.576 242.134,88.517 269.760 C 109.212 281.940,137.934 282.135,158.725 270.237 C 165.893 266.135,169.261 263.184,185.742 246.564 L 201.508 230.664 216.867 245.931 C 225.315 254.327,233.460 262.168,234.967 263.354 C 270.521 291.346,322.074 279.938,342.724 239.509 C 353.819 217.789,352.224 188.630,338.855 168.750 C 327.972 152.567,312.321 141.852,293.750 137.869 C 289.832 137.029,273.292 136.387,269.922 136.943 M290.039 170.096 C 303.400 174.068,314.463 185.993,317.231 199.407 C 323.287 228.749,295.377 253.895,266.992 244.672 C 259.219 242.146,257.512 240.796,239.844 223.214 L 224.414 207.860 239.648 192.488 C 257.923 174.048,259.606 172.707,267.462 170.321 C 273.889 168.369,283.896 168.269,290.039 170.096 M134.881 170.466 C 143.382 173.003,145.789 174.865,163.578 192.670 L 178.524 207.629 161.625 224.476 L 144.727 241.322 141.016 243.101 C 118.313 253.986,90.936 240.580,85.864 216.095 C 81.371 194.407,96.095 172.858,117.773 169.397 C 121.385 168.820,131.478 169.451,134.881 170.466 M276.307 184.348 C 273.218 185.750,272.656 187.399,272.656 195.054 L 272.656 201.563 265.553 201.563 C 259.252 201.563,258.270 201.650,256.862 202.340 C 253.025 204.220,251.927 209.882,254.772 213.122 C 256.861 215.501,257.386 215.625,265.410 215.625 L 272.656 215.625 272.656 222.115 C 272.656 230.938,274.260 233.594,279.590 233.594 C 285.096 233.594,286.719 230.921,286.719 221.850 L 286.719 215.625 292.500 215.625 C 300.485 215.625,303.135 213.857,303.119 208.541 C 303.102 203.232,300.585 201.578,292.506 201.569 L 286.769 201.563 286.646 194.794 C 286.466 184.839,282.980 181.318,276.307 184.348 M105.995 201.535 C 101.298 203.668,101.056 210.868,105.583 213.803 L 107.188 214.844 127.246 214.844 C 149.365 214.844,148.410 214.946,150.704 212.333 C 153.600 209.034,152.517 203.466,148.607 201.557 C 146.209 200.386,108.568 200.367,105.995 201.535 " stroke="none" fill="#fbfbfb" fill-rule="evenodd"></path><path id="path1" d="M184.180 16.069 C 103.115 21.365,31.598 86.138,18.190 166.406 C 9.128 220.658,21.908 272.815,54.220 313.443 C 63.417 325.007,69.178 330.839,82.969 342.548 C 109.007 364.655,140.562 378.505,174.609 382.772 C 182.724 383.789,185.405 384.008,192.383 384.228 L 199.805 384.462 140.316 324.929 C 107.597 292.186,80.966 265.244,81.136 265.058 C 81.306 264.871,81.240 264.836,80.988 264.980 C 80.737 265.124,80.210 264.834,79.816 264.335 C 79.423 263.837,77.819 262.326,76.252 260.978 C 50.956 239.220,45.095 198.641,63.185 170.508 C 82.713 140.139,119.758 128.456,152.355 142.385 C 162.213 146.598,165.809 149.447,184.960 168.214 L 201.366 184.291 216.992 168.806 C 239.167 146.830,245.730 142.338,261.328 138.456 C 293.408 130.472,327.928 145.694,342.368 174.190 C 343.663 176.745,383.131 216.635,383.751 216.015 C 384.379 215.387,384.321 188.294,383.679 182.031 C 379.075 137.162,361.359 100.097,329.395 68.459 C 290.074 29.538,242.228 12.277,184.180 16.069 M277.647 169.037 C 278.566 169.119,279.972 169.118,280.772 169.034 C 281.572 168.950,280.820 168.882,279.102 168.884 C 277.383 168.885,276.728 168.954,277.647 169.037 M122.168 169.427 C 123.081 169.509,124.575 169.509,125.488 169.427 C 126.401 169.344,125.654 169.277,123.828 169.277 C 122.002 169.277,121.255 169.344,122.168 169.427 M252.323 179.590 L 250.977 181.055 252.441 179.709 C 253.805 178.456,254.086 178.125,253.788 178.125 C 253.722 178.125,253.063 178.784,252.323 179.590 M306.055 180.078 C 307.113 181.152,308.066 182.031,308.174 182.031 C 308.281 182.031,307.503 181.152,306.445 180.078 C 305.387 179.004,304.434 178.125,304.326 178.125 C 304.219 178.125,304.997 179.004,306.055 180.078 M150.781 180.273 C 151.510 181.025,152.194 181.641,152.302 181.641 C 152.409 181.641,151.901 181.025,151.172 180.273 C 150.443 179.521,149.759 178.906,149.651 178.906 C 149.544 178.906,150.052 179.521,150.781 180.273 M278.809 183.479 C 279.292 183.572,280.083 183.572,280.566 183.479 C 281.050 183.386,280.654 183.310,279.688 183.310 C 278.721 183.310,278.325 183.386,278.809 183.479 M252.825 208.594 C 252.825 209.346,252.905 209.653,253.004 209.277 C 253.102 208.901,253.102 208.286,253.004 207.910 C 252.905 207.534,252.825 207.842,252.825 208.594 M161.717 224.121 L 145.508 240.430 161.816 224.221 C 176.974 209.155,178.301 207.813,178.026 207.813 C 177.971 207.813,170.632 215.151,161.717 224.121 M244.531 227.930 C 248.286 231.689,251.447 234.766,251.554 234.766 C 251.662 234.766,248.677 231.689,244.922 227.930 C 241.167 224.170,238.006 221.094,237.899 221.094 C 237.792 221.094,240.776 224.170,244.531 227.930 M215.820 245.313 C 223.767 253.262,230.357 259.766,230.465 259.766 C 230.572 259.766,224.158 253.262,216.211 245.313 C 208.264 237.363,201.674 230.859,201.566 230.859 C 201.459 230.859,207.873 237.363,215.820 245.313 M277.453 246.381 C 278.480 246.462,280.062 246.461,280.969 246.379 C 281.875 246.297,281.035 246.231,279.102 246.232 C 277.168 246.234,276.426 246.301,277.453 246.381 M122.375 246.772 C 123.402 246.853,124.984 246.852,125.891 246.770 C 126.797 246.688,125.957 246.622,124.023 246.623 C 122.090 246.624,121.348 246.691,122.375 246.772 " stroke="none" fill="#1c939b" fill-rule="evenodd"></path><path id="path2" d="M336.801 76.172 C 337.966 77.568,340.204 80.205,341.774 82.031 C 365.901 110.088,379.668 142.942,383.679 182.031 C 384.321 188.294,384.379 215.387,383.751 216.015 C 383.439 216.327,377.867 210.936,363.386 196.311 L 343.450 176.177 344.978 179.721 C 352.808 197.884,352.166 220.794,343.318 238.928 C 323.499 279.547,270.618 291.806,235.396 263.946 C 233.223 262.227,224.716 254.125,216.491 245.941 L 201.536 231.060 185.436 247.180 C 169.243 263.393,165.932 266.321,159.614 270.010 C 135.413 284.144,102.638 282.032,80.859 264.936 C 79.893 264.177,106.260 290.760,139.453 324.009 L 199.805 384.462 192.383 384.228 C 185.405 384.008,182.724 383.789,174.609 382.772 C 140.162 378.455,108.748 364.556,82.227 341.899 C 73.405 334.363,73.116 334.180,78.711 339.669 C 108.726 369.118,145.273 386.838,184.570 390.995 C 194.527 392.048,197.215 392.187,207.535 392.183 C 259.121 392.161,302.447 374.226,338.672 337.897 C 380.239 296.210,398.259 241.981,390.595 181.641 C 385.665 142.823,368.584 108.315,339.647 78.711 C 336.793 75.791,335.583 74.712,336.801 76.172 M270.508 169.790 C 261.097 171.804,258.301 173.868,239.648 192.570 L 224.414 207.844 239.648 222.871 C 255.996 238.995,258.698 241.242,264.349 243.420 C 283.355 250.742,304.424 243.018,313.418 225.430 C 328.369 196.192,302.694 162.900,270.508 169.790 M115.666 170.117 C 96.327 174.457,83.389 192.496,85.547 212.108 C 88.278 236.932,113.121 252.604,136.950 244.536 C 143.234 242.408,144.112 241.681,161.819 223.946 L 178.130 207.609 162.795 192.335 C 146.930 176.533,146.033 175.750,140.709 173.066 C 134.382 169.875,122.812 168.513,115.666 170.117 M282.049 183.592 C 285.820 184.640,287.109 187.614,287.109 195.264 L 287.109 201.100 292.871 201.234 C 300.321 201.406,302.795 202.848,303.402 207.369 C 304.202 213.336,300.791 216.016,292.395 216.016 L 287.109 216.016 287.109 221.988 C 287.109 227.411,287.029 228.118,286.230 229.680 C 283.469 235.084,277.064 235.401,273.267 230.321 C 272.541 229.349,272.448 228.584,272.330 222.629 L 272.200 216.016 265.381 216.016 C 256.073 216.016,252.739 214.058,252.739 208.594 C 252.739 203.095,256.173 201.172,265.993 201.172 L 272.266 201.172 272.266 195.194 C 272.266 185.379,275.343 181.729,282.049 183.592 M147.674 200.780 C 153.204 202.316,154.268 210.031,149.475 213.845 L 147.974 215.039 127.344 215.039 L 106.713 215.039 105.237 213.845 C 100.292 209.842,101.280 202.497,106.997 200.764 C 108.505 200.307,146.025 200.322,147.674 200.780 " stroke="none" fill="#147b7b" fill-rule="evenodd"></path><path id="path3" d="M73.424 157.715 L 71.289 159.961 73.535 157.826 C 75.622 155.842,75.960 155.469,75.670 155.469 C 75.609 155.469,74.598 156.479,73.424 157.715 M214.845 170.898 L 201.373 184.373 194.437 177.445 C 190.621 173.634,187.500 170.604,187.500 170.711 C 187.500 170.819,190.621 174.024,194.437 177.835 L 201.373 184.764 215.040 171.093 C 222.557 163.574,228.619 157.422,228.511 157.422 C 228.404 157.422,222.254 163.486,214.845 170.898 M330.859 158.789 C 331.588 159.541,332.272 160.156,332.380 160.156 C 332.487 160.156,331.979 159.541,331.250 158.789 C 330.521 158.037,329.837 157.422,329.730 157.422 C 329.622 157.422,330.131 158.037,330.859 158.789 M165.234 194.727 C 172.429 201.924,178.404 207.813,178.511 207.813 C 178.619 207.813,172.820 201.924,165.625 194.727 C 158.430 187.529,152.456 181.641,152.348 181.641 C 152.241 181.641,158.040 187.529,165.234 194.727 M272.352 195.205 L 272.266 201.152 266.113 201.270 L 259.961 201.389 266.126 201.476 C 273.406 201.578,272.716 202.284,272.558 194.904 L 272.438 189.258 272.352 195.205 M286.898 195.410 L 286.914 201.367 291.602 201.385 L 296.289 201.403 291.709 201.276 L 287.130 201.148 287.006 195.300 L 286.882 189.452 286.898 195.410 M118.262 200.683 C 123.257 200.745,131.431 200.745,136.426 200.683 C 141.421 200.621,137.334 200.571,127.344 200.571 C 117.354 200.571,113.267 200.621,118.262 200.683 M102.044 207.813 C 102.044 208.564,102.124 208.872,102.222 208.496 C 102.321 208.120,102.321 207.505,102.222 207.129 C 102.124 206.753,102.044 207.061,102.044 207.813 M152.434 207.813 C 152.434 208.564,152.515 208.872,152.613 208.496 C 152.711 208.120,152.711 207.505,152.613 207.129 C 152.515 206.753,152.434 207.061,152.434 207.813 M117.480 215.136 C 122.905 215.198,131.782 215.198,137.207 215.136 C 142.632 215.075,138.193 215.025,127.344 215.025 C 116.494 215.025,112.056 215.075,117.480 215.136 M265.419 215.913 L 272.245 216.034 272.369 221.884 L 272.493 227.735 272.477 221.778 L 272.461 215.820 265.527 215.806 L 258.593 215.792 265.419 215.913 M286.891 216.131 C 286.784 216.410,286.751 219.178,286.817 222.284 L 286.937 227.930 287.023 221.984 L 287.109 216.038 292.480 215.917 L 297.852 215.796 292.468 215.711 C 288.357 215.645,287.039 215.745,286.891 216.131 M278.809 233.869 C 279.292 233.963,280.083 233.963,280.566 233.869 C 281.050 233.776,280.654 233.700,279.688 233.700 C 278.721 233.700,278.325 233.776,278.809 233.869 M73.242 258.203 C 74.735 259.707,76.044 260.938,76.151 260.938 C 76.258 260.938,75.125 259.707,73.633 258.203 C 72.140 256.699,70.831 255.469,70.724 255.469 C 70.617 255.469,71.750 256.699,73.242 258.203 M329.474 257.910 L 327.930 259.570 329.590 258.026 C 331.134 256.590,331.430 256.250,331.134 256.250 C 331.070 256.250,330.323 256.997,329.474 257.910 " stroke="none" fill="#7bb3b3" fill-rule="evenodd"></path><path id="path4" d="M276.871 136.618 C 278.222 136.694,280.331 136.694,281.558 136.616 C 282.785 136.539,281.680 136.476,279.102 136.477 C 276.523 136.478,275.520 136.541,276.871 136.618 M121.793 137.008 C 123.144 137.085,125.253 137.084,126.480 137.007 C 127.707 136.930,126.602 136.867,124.023 136.868 C 121.445 136.869,120.441 136.932,121.793 137.008 M52.825 203.906 C 52.825 204.658,52.905 204.966,53.004 204.590 C 53.102 204.214,53.102 203.599,53.004 203.223 C 52.905 202.847,52.825 203.154,52.825 203.906 M350.134 207.617 C 350.135 209.336,350.204 209.990,350.287 209.072 C 350.369 208.153,350.368 206.747,350.284 205.947 C 350.200 205.147,350.132 205.898,350.134 207.617 M303.216 208.594 C 303.216 209.346,303.296 209.653,303.394 209.277 C 303.493 208.901,303.493 208.286,303.394 207.910 C 303.296 207.534,303.216 207.842,303.216 208.594 M189.060 243.262 L 176.758 255.664 189.160 243.362 C 200.686 231.928,201.738 230.859,201.463 230.859 C 201.408 230.859,195.826 236.440,189.060 243.262 M277.051 278.804 C 278.286 278.882,280.308 278.882,281.543 278.804 C 282.778 278.727,281.768 278.663,279.297 278.663 C 276.826 278.663,275.815 278.727,277.051 278.804 M121.793 279.196 C 123.144 279.272,125.253 279.272,126.480 279.194 C 127.707 279.117,126.602 279.055,124.023 279.055 C 121.445 279.056,120.441 279.119,121.793 279.196 " stroke="none" fill="#9cc4c4" fill-rule="evenodd"></path></g></svg>